<?xml version="1.0" standalone="no"?>
<!DOCTYPE svg PUBLIC "-//W3C//DTD SVG 20010904//EN"
 "http://www.w3.org/TR/2001/REC-SVG-20010904/DTD/svg10.dtd">
<svg version="1.0" xmlns="http://www.w3.org/2000/svg"
 width="170.000000pt" height="152.000000pt" viewBox="0 0 170.000000 152.000000"
 preserveAspectRatio="xMidYMid meet">

<g transform="translate(0.000000,152.000000) scale(0.100000,-0.100000)"
fill="#000000" stroke="none">
<path d="M738 1475 c-3 -3 -3 -17 0 -30 8 -46 62 -28 62 21 0 13 -50 21 -62 9z"/>
<path d="M631 1414 c-23 -29 -20 -38 16 -48 16 -5 25 -1 33 15 10 18 9 25 -8
41 -19 20 -19 19 -41 -8z"/>
<path d="M858 1415 c-16 -21 -16 -24 2 -40 14 -13 23 -14 39 -5 27 14 26 22
-1 47 l-23 21 -17 -23z"/>
<path d="M590 1291 c0 -5 4 -21 10 -35 9 -23 12 -25 35 -14 16 7 24 17 20 26
-3 7 -5 18 -5 23 0 5 -13 9 -30 9 -16 0 -30 -4 -30 -9z"/>
<path d="M880 1275 c0 -17 7 -28 23 -34 25 -10 37 2 37 37 0 18 -6 22 -30 22
-25 0 -30 -4 -30 -25z"/>
<path d="M356 1237 c-9 -33 -7 -37 9 -37 8 0 15 4 15 9 0 5 3 16 6 24 3 8 -1
17 -9 20 -10 4 -17 -2 -21 -16z"/>
<path d="M1406 1229 c-28 -33 -32 -59 -14 -92 18 -34 39 -46 81 -47 51 0 87
35 87 85 0 82 -101 117 -154 54z m98 -25 c9 -8 16 -22 16 -29 0 -7 -7 -21 -16
-29 -30 -30 -74 -13 -74 29 0 42 44 59 74 29z"/>
<path d="M226 1232 c-2 -4 4 -18 13 -31 21 -27 33 -17 20 17 -8 22 -24 29 -33
14z"/>
<path d="M678 1186 c-16 -22 -16 -24 8 -35 35 -15 41 -14 47 11 4 14 0 26 -11
34 -23 18 -24 17 -44 -10z"/>
<path d="M816 1197 c-21 -15 -18 -50 4 -55 9 -1 24 4 35 12 20 15 20 15 0 36
-18 17 -23 18 -39 7z"/>
<path d="M457 1162 c-10 -10 -14 -21 -11 -25 9 -9 55 23 48 34 -8 14 -19 11
-37 -9z"/>
<path d="M136 1135 c-5 -13 13 -25 40 -25 22 0 16 16 -10 28 -19 8 -25 8 -30
-3z"/>
<path d="M470 1040 c0 -5 6 -10 14 -10 8 0 21 -3 30 -6 11 -4 16 -1 16 10 0
11 -9 16 -30 16 -16 0 -30 -4 -30 -10z"/>
<path d="M135 1009 c-4 -6 -5 -13 -2 -16 8 -7 47 7 47 18 0 13 -37 11 -45 -2z"/>
<path d="M430 943 c1 -18 30 -44 40 -38 8 5 6 13 -6 26 -17 19 -34 25 -34 12z"/>
<path d="M718 935 c-32 -18 -52 -72 -39 -106 20 -54 72 -77 124 -55 65 26 78
97 28 147 -33 32 -70 37 -113 14z m82 -45 c24 -24 25 -38 3 -62 -33 -37 -83
-17 -83 34 0 45 46 62 80 28z"/>
<path d="M215 920 c-16 -17 -14 -40 4 -40 12 0 31 49 22 54 -5 3 -16 -3 -26
-14z"/>
<path d="M337 904 c-13 -14 -7 -54 8 -54 16 0 18 14 6 43 -3 10 -10 15 -14 11z"/>
<path d="M1159 871 c-71 -72 10 -183 99 -137 60 31 60 121 1 151 -42 22 -67
18 -100 -14z m89 -33 c26 -26 8 -78 -27 -78 -20 0 -51 30 -51 50 0 22 20 40
45 40 12 0 26 -5 33 -12z"/>
<path d="M290 703 c-86 -34 -88 -154 -3 -189 42 -18 94 -5 118 29 23 33 19
101 -7 132 -23 26 -78 40 -108 28z m64 -69 c19 -18 19 -20 6 -45 -19 -34 -80
-19 -80 21 0 38 46 53 74 24z"/>
<path d="M730 637 c-53 -27 -63 -110 -17 -142 33 -23 90 -19 115 8 62 66 -18
175 -98 134z m64 -43 c19 -18 20 -28 6 -55 -13 -23 -43 -25 -64 -3 -21 20 -20
30 4 54 24 24 34 25 54 4z"/>
<path d="M1164 520 c-11 -4 -33 -22 -47 -40 -57 -67 -25 -173 59 -200 52 -17
97 -5 133 35 40 45 48 92 25 140 -29 63 -105 92 -170 65z m103 -72 c29 -27 29
-65 1 -95 -45 -48 -118 -16 -118 51 0 61 71 88 117 44z"/>
<path d="M711 242 c-38 -20 -71 -73 -71 -112 0 -67 73 -126 143 -117 120 16
144 186 32 233 -45 18 -63 18 -104 -4z m97 -62 c43 -40 18 -110 -40 -110 -33
0 -68 31 -68 60 0 26 43 70 68 70 10 0 28 -9 40 -20z"/>
</g>
</svg>
