<?xml version="1.0" standalone="no"?>
<!DOCTYPE svg PUBLIC "-//W3C//DTD SVG 20010904//EN"
 "http://www.w3.org/TR/2001/REC-SVG-20010904/DTD/svg10.dtd">
<svg version="1.0" xmlns="http://www.w3.org/2000/svg"
 width="730.000000pt" height="257.000000pt" viewBox="0 0 730.000000 257.000000"
 preserveAspectRatio="xMidYMid meet">

<g transform="translate(0.000000,257.000000) scale(0.100000,-0.100000)"
fill="#000000" stroke="none">
<path d="M1235 2551 c-3 -6 0 -30 6 -55 11 -45 12 -46 54 -46 42 0 42 0 52 47
6 26 9 51 7 55 -7 11 -112 10 -119 -1z"/>
<path d="M1095 2482 c-18 -12 -65 -73 -65 -83 0 -5 20 -19 44 -31 l44 -21 26
29 c14 16 26 33 26 37 0 9 -53 77 -60 77 -3 0 -10 -4 -15 -8z"/>
<path d="M1444 2452 l-32 -38 29 -32 29 -33 45 20 c25 11 45 25 45 30 0 12
-69 91 -79 91 -3 0 -20 -17 -37 -38z"/>
<path d="M1537 2262 c-26 -2 -50 -9 -52 -15 -18 -60 -16 -66 24 -87 22 -11 45
-20 50 -20 14 0 34 69 29 100 -3 23 -6 25 -51 22z"/>
<path d="M1000 2231 c0 -36 19 -91 31 -91 6 0 27 9 48 20 39 19 39 19 29 60
-10 40 -11 40 -59 40 -47 0 -49 -1 -49 -29z"/>
<path d="M2425 2185 c-22 -8 -41 -15 -42 -15 -1 0 -14 -17 -28 -37 -68 -100 4
-243 123 -243 46 0 109 35 132 73 27 44 26 119 -1 164 -37 59 -115 84 -184 58z
m108 -97 c26 -30 22 -73 -9 -97 -15 -12 -34 -21 -44 -21 -33 0 -70 39 -70 74
0 68 78 95 123 44z"/>
<path d="M606 2181 c-2 -3 -6 -27 -10 -52 -6 -42 -5 -47 14 -52 22 -6 35 15
47 74 4 22 1 27 -21 31 -15 3 -28 3 -30 -1z"/>
<path d="M390 2150 c-13 -8 -12 -16 9 -55 25 -48 28 -50 50 -36 12 8 12 16 -3
55 -18 46 -29 54 -56 36z"/>
<path d="M1150 2075 c-40 -42 -35 -59 26 -85 25 -11 47 -20 49 -20 5 0 28 101
24 103 -70 38 -65 38 -99 2z"/>
<path d="M1375 2092 c-16 -10 -31 -17 -33 -18 -3 -1 19 -104 23 -104 11 0 83
35 97 47 16 14 15 18 -14 54 -35 44 -32 43 -73 21z"/>
<path d="M772 2029 c-20 -18 -31 -36 -28 -45 8 -20 26 -17 69 11 33 23 35 28
24 45 -16 27 -26 25 -65 -11z"/>
<path d="M230 1985 c-6 -15 -10 -28 -10 -30 0 -2 21 -10 47 -19 78 -27 88 16
13 54 l-40 21 -10 -26z"/>
<path d="M6673 1935 l-53 -24 6 -48 c3 -26 9 -77 14 -113 5 -36 14 -132 20
-215 6 -82 12 -170 15 -195 27 -283 39 -336 82 -370 77 -60 130 25 153 245 17
165 41 484 42 575 3 139 -25 168 -162 169 -49 1 -78 -5 -117 -24z"/>
<path d="M3415 1940 c-269 -14 -386 -23 -390 -31 -3 -4 6 -38 19 -76 l25 -68
4 -545 c4 -602 3 -594 68 -662 30 -32 42 -38 78 -38 57 0 95 22 117 67 15 32
19 79 27 293 5 140 10 256 11 257 1 1 103 6 226 11 241 11 272 17 296 63 16
32 19 112 4 138 -9 18 -42 34 -93 45 -15 4 -107 1 -205 -5 -97 -7 -190 -13
-207 -13 l-30 -1 4 140 c2 77 7 147 12 156 7 14 42 17 266 21 222 4 263 7 295
23 50 24 70 66 66 134 -5 88 -14 91 -249 96 -107 1 -261 0 -344 -5z"/>
<path d="M4197 1916 c-92 -25 -125 -87 -89 -168 48 -109 193 -132 272 -42 25
29 30 43 30 84 0 62 -31 102 -97 124 -54 19 -53 19 -116 2z"/>
<path d="M793 1824 c-7 -18 12 -34 42 -34 11 0 30 -3 43 -6 19 -6 22 -3 22 25
0 31 -1 31 -50 31 -37 0 -52 -4 -57 -16z"/>
<path d="M245 1781 c-30 -6 -41 -26 -27 -49 7 -9 18 -9 54 4 37 12 45 19 41
35 -5 20 -16 21 -68 10z"/>
<path d="M721 1666 c-10 -12 -6 -22 23 -53 l35 -38 21 21 22 21 -40 32 c-46
36 -46 36 -61 17z"/>
<path d="M1215 1647 c-43 -24 -85 -91 -85 -137 0 -37 40 -110 73 -134 43 -31
140 -29 186 3 126 90 58 290 -99 291 -19 0 -53 -10 -75 -23z m131 -80 c35 -31
37 -77 4 -112 -34 -36 -81 -34 -114 6 -34 40 -33 64 3 100 36 35 70 37 107 6z"/>
<path d="M359 1608 c-31 -39 -32 -41 -14 -54 28 -20 33 -18 55 26 24 47 25 56
5 63 -9 4 -26 -9 -46 -35z"/>
<path d="M560 1545 c0 -52 1 -55 25 -55 20 0 25 5 25 24 0 52 -12 86 -31 86
-16 0 -19 -8 -19 -55z"/>
<path d="M1969 1557 c-48 -32 -71 -81 -66 -140 15 -170 252 -187 296 -21 11
41 5 79 -19 123 -32 61 -146 82 -211 38z m131 -77 c24 -24 26 -77 3 -102 -22
-24 -77 -24 -103 2 -27 27 -25 66 5 95 29 30 68 32 95 5z"/>
<path d="M4108 1543 c-33 -5 -32 1 -13 -88 11 -54 15 -151 15 -438 l0 -367 25
-40 c42 -66 107 -86 180 -56 60 26 63 39 74 402 19 584 21 532 -13 559 -16 13
-42 26 -59 29 -32 6 -164 6 -209 -1z"/>
<path d="M4798 1541 c-103 -4 -190 -10 -195 -15 -13 -12 -6 -91 10 -122 9 -16
29 -42 45 -58 l30 -28 160 7 c103 5 161 4 165 -3 4 -5 -6 -28 -21 -50 -45 -68
-213 -282 -283 -362 -137 -158 -149 -176 -149 -235 0 -72 27 -104 96 -116 63
-10 404 -10 558 0 143 10 156 19 156 107 0 66 -16 103 -48 111 -14 3 -110 3
-214 -1 -103 -3 -188 -3 -188 0 0 3 21 29 46 58 65 71 371 480 394 527 11 21
20 53 20 71 0 47 -30 101 -60 109 -29 8 -260 8 -522 0z"/>
<path d="M5760 1539 c-102 -3 -188 -7 -191 -8 -16 -3 -19 -38 -9 -87 8 -38 21
-61 48 -89 l37 -37 161 7 c104 5 164 4 168 -3 3 -5 -6 -27 -20 -48 -45 -66
-224 -294 -314 -399 -116 -135 -120 -141 -120 -198 0 -57 21 -102 52 -112 39
-12 425 -17 576 -7 170 11 174 13 180 104 3 54 1 67 -19 92 l-23 29 -203 -6
c-112 -4 -203 -4 -203 -2 0 3 31 42 69 88 124 149 344 446 375 505 32 62 7
159 -44 173 -31 9 -272 8 -520 -2z"/>
<path d="M461 1238 c-167 -114 -65 -364 130 -318 110 27 165 155 110 257 -40
75 -171 109 -240 61z m135 -104 c40 -39 20 -95 -38 -109 -21 -5 -33 -1 -52 19
-33 32 -33 60 -1 91 31 32 59 32 91 -1z"/>
<path d="M1222 1140 c-101 -62 -95 -212 11 -260 52 -24 71 -24 123 -1 53 24
84 74 84 133 0 111 -125 185 -218 128z m120 -77 c22 -20 23 -70 1 -95 -20 -22
-70 -23 -95 -1 -22 20 -23 70 -1 95 20 22 70 23 95 1z"/>
<path d="M2005 961 c-48 -12 -90 -37 -122 -75 -92 -104 -59 -273 66 -338 154
-80 324 24 325 198 0 106 -68 189 -174 213 -51 12 -53 12 -95 2z m126 -137
c76 -73 27 -194 -78 -194 -38 0 -50 5 -79 34 -28 28 -34 41 -34 78 0 51 20 85
64 104 42 19 93 10 127 -22z"/>
<path d="M6703 800 c-85 -52 -96 -172 -22 -235 27 -22 40 -25 102 -25 120 0
175 55 164 164 -4 41 -11 55 -41 83 -33 31 -41 33 -103 33 -50 0 -77 -5 -100
-20z"/>
<path d="M1205 486 c-92 -41 -143 -152 -114 -253 16 -57 79 -125 134 -143 56
-19 136 -8 185 24 137 90 125 292 -21 367 -45 22 -138 25 -184 5z m130 -100
c37 -16 65 -60 65 -102 0 -38 -59 -94 -99 -94 -91 0 -144 96 -90 164 36 45 70
54 124 32z"/>
</g>
</svg>
